<svg width="1440" height="1024" viewBox="0 0 1440 1024" fill="none" xmlns="http://www.w3.org/2000/svg">
<rect width="1440" height="1024" fill="white"/>
<g clip-path="url(#clip0)">
<path d="M1320 112.001H120V585.879H1320V112.001Z" fill="#F2EBD0"/>
<path d="M1003.19 408.025H933.93V423.542H1003.19V408.025Z" fill="#E4DAB4"/>
<path d="M1012.1 423.543H967.48V439.061H1012.1V423.543Z" fill="#E4DAB4"/>
<path d="M1192.01 134.243H1261.27V149.76H1192.01V134.243Z" fill="#E4DAB4"/>
<path d="M1158.46 149.76H1227.72V165.278H1158.46V149.76Z" fill="#E4DAB4"/>
<path d="M758.936 341.181H828.194V356.699H758.936V341.181Z" fill="#E4DAB4"/>
<path d="M327.005 288.481H396.263V303.999H327.005V288.481Z" fill="#E4DAB4"/>
<path d="M499.489 468.619H568.747V484.137H499.489V468.619Z" fill="#E4DAB4"/>
<path d="M615.555 266.354H546.297V281.872H615.555V266.354Z" fill="#E4DAB4"/>
<path d="M290.952 480.963H221.694V496.481H290.952V480.963Z" fill="#E4DAB4"/>
<path d="M638.005 281.874H568.747V297.391H638.005V281.874Z" fill="#E4DAB4"/>
<path d="M313.402 496.483H244.144V512.001H313.402V496.483Z" fill="#E4DAB4"/>
<path d="M638.005 250.837H568.747V266.354H638.005V250.837Z" fill="#E4DAB4"/>
<path d="M313.402 465.446H244.144V480.963H313.402V465.446Z" fill="#E4DAB4"/>
<path opacity="0.7" d="M1223.76 592.955H1229.76V586.955V224.77C1229.76 210.471 1217.99 199.061 1203.7 199.061H1037.33C1023.04 199.061 1011.27 210.471 1011.27 224.77V586.955V592.955H1017.27H1223.76Z" fill="#D0ECF2" stroke="#E4DAB4" stroke-width="12"/>
<path d="M994.967 335.476H1247.4" stroke="white" stroke-width="2" stroke-linecap="round"/>
<path d="M994.967 486.578H1247.4" stroke="white" stroke-width="2" stroke-linecap="round"/>
<path d="M1043.03 447.186L1080.29 381.18" stroke="white" stroke-width="1.25404" stroke-linecap="round"/>
<path d="M1043.03 468.619L1080.29 402.613" stroke="white" stroke-width="1.25404" stroke-linecap="round"/>
<path d="M1159.41 307.81L1196.67 241.805" stroke="white" stroke-width="1.25404" stroke-linecap="round"/>
<path d="M1159.41 329.243L1196.67 263.238" stroke="white" stroke-width="1.25404" stroke-linecap="round"/>
<path d="M1121.18 205.045V586.951" stroke="white" stroke-width="2" stroke-linecap="round"/>
<path d="M1235.84 580.253H1003.86V601.718H1235.84V580.253Z" fill="#E4DAB4"/>
<path d="M1223.76 270.274V576.815" stroke="#6B6B6B" stroke-width="1.25404" stroke-linecap="round"/>
<path d="M1017.27 270.274L1017.27 576.815" stroke="#6B6B6B" stroke-width="1.25404" stroke-linecap="round"/>
<path d="M149.536 904.475C149.536 908.63 154.442 911.999 160.494 911.999H1279.51C1285.56 911.999 1290.46 908.629 1290.46 904.475V904.25C1290.46 900.094 1285.56 896.726 1279.51 896.726H160.494C154.442 896.726 149.536 900.094 149.536 904.25V904.475Z" fill="#E4DAB4"/>
<path d="M267.146 912H1172.85" stroke="#6B6B6B" stroke-width="1.25404" stroke-linecap="round"/>
<path d="M474.587 896.727H569.741" stroke="#6B6B6B" stroke-width="1.25404" stroke-linecap="round"/>
<path d="M1012.88 896.727H1062.77" stroke="#6B6B6B" stroke-width="1.25404" stroke-linecap="round"/>
</g>
<rect x="409.346" y="747.777" width="145.766" height="23.5039" transform="rotate(90 409.346 747.777)" fill="#FFDFAE"/>
<rect x="396.353" y="747.777" width="145.766" height="10.512" transform="rotate(90 396.353 747.777)" fill="#CFA844"/>
<rect x="205.274" y="734.074" width="222.308" height="38.5685" rx="19.2843" fill="#FFDFAE"/>
<path d="M238.829 746.397L184.615 549.533L258.413 549.533C270.292 549.533 280.672 557.559 283.661 569.056L329.762 746.397L238.829 746.397Z" fill="#FFDFAE"/>
<rect x="249.755" y="747.777" width="145.766" height="23.5039" transform="rotate(90 249.755 747.777)" fill="#FFDFAE"/>
<rect x="236.761" y="747.777" width="145.766" height="10.512" transform="rotate(90 236.761 747.777)" fill="#CFA844"/>
<rect x="316.429" y="747.777" width="145.766" height="23.5039" transform="rotate(90 316.429 747.777)" fill="#FFDFAE"/>
<rect x="303.438" y="747.777" width="145.766" height="10.512" transform="rotate(90 303.438 747.777)" fill="#CFA844"/>
<rect x="332.305" y="747.777" width="145.766" height="23.5039" transform="rotate(90 332.305 747.777)" fill="#FFDFAE"/>
<rect x="319.314" y="747.777" width="145.766" height="10.512" transform="rotate(90 319.314 747.777)" fill="#CFA844"/>
<rect x="216.422" y="774.139" width="228.204" height="38.5685" rx="19.2843" transform="rotate(-105 216.422 774.139)" fill="#CFA844"/>
<rect x="205.274" y="735.946" width="150.039" height="36.6959" rx="18.348" fill="#CFA844"/>
<g opacity="0.66">
<path d="M231.521 580.781L236.073 589.194L243.061 593.91L237.132 598.372L234.697 606.785L230.145 598.372L223.158 593.655L228.98 589.194L231.521 580.781Z" fill="#CFA844"/>
<path d="M267.304 581.292L271.327 588.812L277.468 592.891L272.28 596.843L270.057 604.363L266.034 596.843L259.894 592.764L265.081 588.685L267.304 581.292Z" fill="#CFA844"/>
<path d="M245.072 640.055L249.625 648.468L256.612 653.184L250.789 657.773L248.248 666.058L243.696 657.645L236.709 653.057L242.637 648.468L245.072 640.055Z" fill="#CFA844"/>
<path d="M280.856 640.563L284.879 648.084L291.125 652.163L285.832 656.242L283.609 663.635L279.692 656.114L273.445 652.035L278.633 648.084L280.856 640.563Z" fill="#CFA844"/>
<path d="M258.729 699.328L263.282 707.869L270.269 712.458L264.34 717.046L261.905 725.459L257.353 716.919L250.26 712.33L256.189 707.741L258.729 699.328Z" fill="#CFA844"/>
<path d="M294.513 699.966L298.536 707.359L304.677 711.566L299.489 715.517L297.266 722.91L293.243 715.517L286.997 711.311L292.29 707.359L294.513 699.966Z" fill="#CFA844"/>
</g>
<rect x="784.258" y="717.771" width="186.591" height="32.2716" transform="rotate(90 784.258 717.771)" fill="#F3D483"/>
<rect x="766.42" y="717.771" width="186.591" height="14.4333" transform="rotate(90 766.42 717.771)" fill="#CFA844"/>
<rect x="870.986" y="717.771" width="186.591" height="32.2716" transform="rotate(90 870.986 717.771)" fill="#F3D483"/>
<rect x="853.149" y="717.771" width="186.591" height="14.4333" transform="rotate(90 853.149 717.771)" fill="#CFA844"/>
<rect x="731.888" y="701.636" width="157.324" height="32.2716" fill="#F3D483"/>
<rect x="522.612" y="717.772" width="186.591" height="32.2716" transform="rotate(90 522.612 717.772)" fill="#F3D483"/>
<rect x="504.277" y="717.772" width="186.591" height="14.4333" transform="rotate(90 504.277 717.772)" fill="#CFA844"/>
<rect x="609.341" y="717.772" width="186.591" height="32.2716" transform="rotate(90 609.341 717.772)" fill="#F3D483"/>
<rect x="591.006" y="717.772" width="186.591" height="14.4333" transform="rotate(90 591.006 717.772)" fill="#CFA844"/>
<rect x="470.242" y="701.636" width="157.324" height="32.2716" fill="#F3D483"/>
<rect x="470.242" y="701.636" width="34.0346" height="32.2716" fill="#CFA844"/>
<rect x="731.888" y="701.636" width="34.5313" height="32.2716" fill="#CFA844"/>
<rect x="432.368" y="681.146" width="472.382" height="31.8538" rx="15.9269" fill="#F3D483"/>
<rect x="432.368" y="681.146" width="348.71" height="31.8538" rx="15.9269" fill="#CFA844"/>
<rect x="753.134" y="577.403" width="71.3989" height="13.1311" fill="#CFA844"/>
<rect x="766.974" y="577.322" width="59.2868" height="13.8339" fill="#FFDFAE"/>
<path d="M735.119 677.515L763.714 592.833H770.425L775.969 677.515H735.119Z" fill="#8ED0FF" fill-opacity="0.3"/>
<path d="M819.953 590.535L797.67 676.294L792.628 676.294L814.91 590.535L819.953 590.535Z" fill="#CFA844"/>
<path d="M823.758 590.535L801.475 676.294L796.433 676.294L818.715 590.535L823.758 590.535Z" fill="#FFDFAE"/>
<rect x="775.446" y="664.384" width="50.8152" height="13.1311" rx="6.56556" fill="#FFDFAE"/>
<rect x="777.899" y="657.265" width="4.26445" height="7.11882" fill="#8ED0FF"/>
<rect x="752.359" y="590.453" width="28.2414" height="5.04262" fill="#CFA844"/>
<rect x="766.974" y="590.453" width="13.627" height="5.04262" fill="#FFDFAE"/>
<rect x="760.187" y="664.384" width="45.8461" height="13.1311" rx="6.56556" fill="#CFA844"/>
<path opacity="0.2" d="M710.383 677.515L758.37 592.833H776.468L795.389 677.515H710.383Z" fill="#8ED0FF"/>
<path d="M462.718 515.191C463.187 512.94 465.17 511.327 467.469 511.327H693.342C696.419 511.327 699.179 516.651 698.553 519.662L672.231 641.47C671.763 643.72 669.78 645.334 667.481 645.334C667.481 645.334 480.386 646.015 447.171 645.84C444.184 645.825 442.822 644.988 441.082 644.364C439.341 643.739 436.589 641.314 437.006 639.022C437.422 636.731 462.718 515.191 462.718 515.191Z" fill="#365975"/>
<path d="M467.393 518.031C467.853 515.82 469.802 514.235 472.06 514.235H693.979C697.002 514.235 699.261 517.013 698.645 519.974L673.238 642.1C672.778 644.312 670.829 645.897 668.571 645.897H446.653C443.629 645.897 441.37 643.119 441.985 640.158L467.393 518.031Z" fill="#85B3EC"/>
<path d="M527.471 645.837L541.749 598.957H581.366V645.837H527.471Z" fill="#365975"/>
<path d="M529.806 676.179H603.171C603.829 676.179 604.362 676.712 604.362 677.371V678.333C604.362 678.991 603.829 679.524 603.171 679.524H529.806C529.148 679.524 528.615 678.991 528.615 678.333V677.371C528.615 676.712 529.148 676.179 529.806 676.179Z" fill="#617C92"/>
<path d="M541.894 600.058C541.053 597.729 542.779 595.27 545.257 595.27H578.77C580.277 595.27 581.622 596.214 582.133 597.632L611.689 679.525H570.574L541.894 600.058Z" fill="#98BFEF"/>
<path d="M653.119 630.03H654.875L650.715 640.309H648.959L653.119 630.03Z" fill="#365975"/>
<path d="M656.077 630.03H657.833L653.672 640.309H651.917L656.077 630.03Z" fill="#365975"/>
<path d="M659.035 630.029H660.79L656.63 640.308H654.875L659.035 630.029Z" fill="#365975"/>
<path d="M661.993 630.029H663.748L659.588 640.308H657.832L661.993 630.029Z" fill="#365975"/>
<path d="M460.757 630.03H462.512L458.352 640.309H456.597L460.757 630.03Z" fill="#365975"/>
<path d="M463.715 630.03H465.47L461.31 640.309H459.554L463.715 630.03Z" fill="#365975"/>
<path d="M466.672 630.029H468.428L464.268 640.308H462.512L466.672 630.029Z" fill="#365975"/>
<path d="M469.63 630.029H471.386L467.225 640.308H465.47L469.63 630.029Z" fill="#365975"/>
<path d="M579.962 616.553C582.579 623.682 581.821 632.087 575.412 632.086C565.828 632.086 562.116 627.06 560.955 619.722C560.078 614.189 561.445 605.588 567.534 605.588C573.138 605.588 577.344 609.423 579.962 616.553Z" fill="#365975"/>
<rect x="177.505" y="62.2629" width="233.612" height="259.038" fill="#373737"/>
<rect x="188.688" y="74.6641" width="211.244" height="234.235" fill="#FFFAEC"/>
<path d="M207.588 283.761L381.035 270.413C381.035 270.413 379.444 253.979 364.132 232.299C354.82 219.115 330.277 215.514 305.788 218.513C290.364 220.401 215.971 232.279 207.588 283.761Z" fill="#F26578"/>
<path fill-rule="evenodd" clip-rule="evenodd" d="M316.448 263.52C289.595 270.571 267.014 271.709 235.318 264.465C233.785 264.116 232.185 264.707 231.269 265.982C264.832 274.002 290.119 273.813 312.787 268.472C335.422 263.147 355.54 252.656 361.378 248.091C362.032 247.578 362.149 246.637 361.635 245.983C361.126 245.329 360.18 245.213 359.53 245.726C354.109 249.962 338.768 258.267 316.448 263.52Z" fill="#333333"/>
<path d="M314.713 217.412C314.771 226.091 313.98 233.209 307.978 238.85C297.422 248.774 275.733 237.522 281.721 224.739C285.702 216.22 285.28 202.933 278.855 186.525C278.051 184.48 280.679 184.548 284.834 185.701C295.046 188.516 314.456 197.811 314.771 197.98C314.271 205.157 314.684 211.631 314.713 217.412Z" fill="#A8916D"/>
<path d="M314.712 217.411C307.565 215.662 297.106 212.953 293.082 211.223C289.581 209.726 286.715 196.938 284.834 185.701C295.046 188.516 314.455 197.81 314.771 197.975C314.271 205.156 314.683 211.63 314.712 217.411Z" fill="#4B3F2E"/>
<path d="M273.803 160.703C272.14 145.623 279.204 137.685 293.067 136.154C299.861 135.408 324.507 139.1 330.02 141.296C340.664 154.718 336.14 191.023 334.341 196.804C333.07 200.903 327.218 214.787 322.539 215.019C318.592 215.218 305.461 211.167 295.909 206.621C292.713 205.1 290.42 202.241 289.314 198.878C287.768 194.148 285.498 186.967 283.888 180.706L271.393 171.436C271.393 171.436 269.623 169.43 271.097 165.214C272.566 161.003 273.803 160.703 273.803 160.703Z" fill="#A8916D"/>
<path d="M318.228 199.336C318.053 199.075 317.699 199.002 317.442 199.176C317.18 199.351 317.107 199.705 317.282 199.966L318.228 199.336ZM326.543 200.32C326.757 200.087 326.742 199.729 326.509 199.516C326.277 199.302 325.918 199.317 325.704 199.549L326.543 200.32ZM317.282 199.966C318.446 201.706 320.123 202.51 321.85 202.51C323.561 202.505 325.273 201.706 326.543 200.32L325.704 199.549C324.623 200.727 323.202 201.367 321.85 201.371C320.507 201.371 319.183 200.761 318.228 199.336L317.282 199.966Z" fill="#4B3F2E"/>
<path d="M328.862 191.303L322.17 175.438L319.023 191.846C319.023 191.846 321.167 194.249 324.231 193.988C327.291 193.726 328.862 191.303 328.862 191.303Z" fill="#4B3F2E"/>
<path d="M248.817 136.473C255.858 145.752 269.168 141.236 278.453 134.2C287.734 127.159 294.784 116.237 287.739 106.957C280.693 97.6821 262.384 101.35 253.099 108.386C243.818 115.427 241.772 127.198 248.817 136.473Z" fill="#333333"/>
<path d="M256.211 164.389C257.03 172.608 257.69 185.124 279.572 198.988C291.467 196.667 269.167 181.311 277.046 172.671C285.953 163.304 288.242 176.32 288.242 176.32C288.242 176.32 288.242 155.163 300.97 152.91C332.202 170.253 335.683 168.121 342.971 162.088C349.818 149.765 333.85 129.374 324.536 123.699C301.358 109.584 278.438 132.121 278.438 132.121C278.438 132.121 254.48 147.114 256.211 164.389Z" fill="#333333"/>
<path d="M295.884 118.049C293.887 116.944 291.389 117.356 289.852 119.047L285.93 123.355C285.236 124.116 284.456 124.785 283.597 125.352L266.432 136.647L260.299 140.689C255.925 143.567 252.511 148.742 257.564 150.109L259.644 150.807C262.064 151.461 264.963 149.867 266.447 147.851L273.681 142.375C274.7 140.994 275.951 139.807 277.386 138.862L296.209 126.471C299.303 124.436 299.123 119.847 295.884 118.049Z" fill="#F26578"/>
<path d="M280.499 168.334C284.378 167.694 288.388 172.4 289.45 178.845C290.512 185.285 288.228 191.027 284.349 191.666C280.47 192.306 276.465 187.601 275.403 181.156C274.341 174.716 276.62 168.974 280.499 168.334Z" fill="#A8916D"/>
<path d="M291.331 166.298C291.152 166.778 291.399 167.316 291.879 167.5C292.364 167.674 292.902 167.432 293.082 166.947L291.331 166.298ZM307.604 160.202C308.118 160.246 308.569 159.858 308.608 159.344C308.646 158.831 308.263 158.385 307.749 158.341L307.604 160.202ZM293.082 166.947C293.964 164.573 298.115 159.465 307.604 160.202L307.749 158.341C297.436 157.542 292.509 163.134 291.331 166.298L293.082 166.947Z" fill="#424242"/>
<path d="M347.161 158.41C347.462 158.827 347.36 159.413 346.943 159.709C346.521 160.009 345.939 159.912 345.638 159.491L347.161 158.41ZM332.721 157.455C332.27 157.702 331.703 157.543 331.456 157.092C331.203 156.641 331.368 156.074 331.819 155.822L332.721 157.455ZM345.638 159.491C344.882 158.424 343.296 156.99 341.09 156.287C338.918 155.595 336.086 155.595 332.721 157.455L331.819 155.822C335.616 153.719 338.986 153.656 341.657 154.509C344.295 155.347 346.196 157.053 347.161 158.41L345.638 159.491Z" fill="#424242"/>
<path d="M296.5 250.508C286.977 250.508 276.373 242.799 272.848 224.889C272.78 224.54 273.003 224.201 273.352 224.133C273.701 224.065 274.041 224.288 274.109 224.637C277.692 242.838 288.728 250.063 298.076 249.147C313.937 247.591 317.263 234.387 317.263 223.576C317.263 223.222 317.549 222.936 317.908 222.936C318.262 222.936 318.548 223.222 318.548 223.576C318.548 234.915 315.018 248.779 298.202 250.426C297.64 250.479 297.073 250.508 296.5 250.508Z" fill="#333333"/>
<path d="M305.655 165.698L311.464 165.286L299.531 182.993L295.773 179.242L305.655 165.698Z" fill="white" fill-opacity="0.392"/>
<path d="M314.14 170.484L315.783 171.962L305.64 186.456L303.404 185.08L314.14 170.484Z" fill="white" fill-opacity="0.392"/>
<path d="M336.27 162.726L341.449 163.928L329.773 180.728L326.388 176.27L336.27 162.726Z" fill="white" fill-opacity="0.392"/>
<path d="M344.756 167.514L346.405 168.992L336.256 183.486L334.026 182.115L344.756 167.514Z" fill="white" fill-opacity="0.392"/>
<path d="M306.014 185.773C311.828 185.773 316.541 181.063 316.541 175.258C316.541 169.448 311.828 164.738 306.014 164.738C300.205 164.738 295.492 169.448 295.492 175.258C295.492 181.063 300.205 185.773 306.014 185.773Z" fill="#D4D4D4" fill-opacity="0.2"/>
<path fill-rule="evenodd" clip-rule="evenodd" d="M306.014 165.876C300.831 165.876 296.631 170.077 296.631 175.258C296.631 180.438 300.831 184.634 306.014 184.634C311.197 184.634 315.401 180.438 315.401 175.258C315.401 170.077 311.197 165.876 306.014 165.876ZM294.353 175.258C294.353 168.818 299.575 163.599 306.014 163.599C312.458 163.599 317.68 168.818 317.68 175.258C317.68 181.693 312.458 186.912 306.014 186.912C299.575 186.912 294.353 181.693 294.353 175.258Z" fill="#F2F2F2"/>
<path d="M336.45 183.612C342.263 183.612 346.977 178.902 346.977 173.092C346.977 167.287 342.263 162.577 336.45 162.577C330.641 162.577 325.928 167.287 325.928 173.092C325.928 178.902 330.641 183.612 336.45 183.612Z" fill="#D4D4D4" fill-opacity="0.2"/>
<path fill-rule="evenodd" clip-rule="evenodd" d="M336.455 163.715C331.271 163.715 327.068 167.911 327.068 173.092C327.068 178.272 331.271 182.473 336.455 182.473C341.638 182.473 345.837 178.272 345.837 173.092C345.837 167.911 341.638 163.715 336.455 163.715ZM324.789 173.092C324.789 166.656 330.011 161.437 336.455 161.437C342.894 161.437 348.116 166.656 348.116 173.092C348.116 179.532 342.894 184.75 336.455 184.75C330.011 184.75 324.789 179.532 324.789 173.092Z" fill="#F2F2F2"/>
<path d="M203.691 298.849L380.371 122.168" stroke="white" stroke-opacity="0.4" stroke-width="14.1651" stroke-linecap="round"/>
<path d="M324.843 298.847L388.186 235.503" stroke="white" stroke-opacity="0.4" stroke-width="14.1651" stroke-linecap="round"/>
<path d="M741.108 805.453L757.778 810.855L768.259 771.832L749.862 767.088L741.108 805.453Z" fill="#EEB489"/>
<path d="M761.397 798.834C761.397 798.834 790.89 820.27 809.731 829.503C814.811 831.992 810.197 842.213 810.197 842.213L735.217 820.449C733.99 820.104 733.211 818.939 733.395 817.71C734.051 813.319 736.423 801.575 740.893 798.472C741.792 797.849 743.207 798.971 744.563 799.85C746.068 800.826 746.653 809.651 758.95 804.21C760.102 803.7 760.008 799.603 761.397 798.834Z" fill="#F2A600"/>
<path d="M658.136 874.123H673.327L673.906 842.279H656.156L658.136 874.123Z" fill="#EEB489"/>
<path d="M740.68 784.206H773.882L792.261 716.513L740.68 600.863L697.821 614.007L760.446 716.513L740.68 784.206Z" fill="#574444"/>
<path d="M649.251 848.972L679.678 848.972L684.953 743.486L694.661 600.863L652.672 600.863L649.251 848.972Z" fill="#574444"/>
<path d="M653.132 628.719L740.813 628.719L740.813 600.863L653.132 600.863L653.132 628.719Z" fill="#574444"/>
<path d="M683.948 907.494H648.711C647.576 907.494 646.656 906.598 646.656 905.494V899.854C646.656 892.014 653.189 885.659 661.247 885.659H671.412C679.47 885.659 686.003 892.014 686.003 899.854V905.494C686.003 906.598 685.083 907.494 683.948 907.494Z" fill="#574444"/>
<path d="M675.837 877.579C674.094 876.256 672.651 873.651 673.265 868.542L654.363 869.317C654.363 869.317 660.288 880.773 652.435 884.597C648.329 886.596 647.354 890.811 647.009 900.629C646.664 910.446 683.055 900.629 683.055 900.629L681.381 887.058C680.897 883.13 678.773 879.806 675.837 877.579Z" fill="#574444"/>
<path d="M992.15 477.198C1019.7 483.675 1046.93 473.243 1059.49 452.562C1074.2 428.343 1066.4 394.013 1047.99 381.116C1022.18 363.028 987.184 395.28 901.817 421.356C841.335 439.83 799.399 452.64 751.711 444.733C662.424 429.93 652.227 358.961 579.904 358.123C522.815 357.461 467.179 400.96 442.762 451.74C424.651 489.405 420.973 536.78 435.371 574.922C488.768 716.372 806.608 772.773 908.387 658.685C946.47 615.996 965.537 536.844 935.487 510.867C906.356 485.685 840.63 518.744 832.015 523.185" stroke="#F1F2F2" stroke-width="47.1739" stroke-miterlimit="10"/>
<path d="M881.93 497.666C882.584 497.418 904.166 476.924 919.899 476.362C920.188 472.519 941.655 472.279 941.014 467.959C940.696 465.817 921.643 456.816 910.393 455.23C898.962 453.619 881.93 463.785 881.93 463.785V497.666Z" fill="#EEB489"/>
<path d="M941.451 478.76V469.906C941.451 468.873 940.614 468.036 939.581 468.036H900.219C899.187 468.036 898.349 468.873 898.349 469.906V478.76C898.349 479.793 899.187 480.63 900.219 480.63H939.581C940.614 480.63 941.451 479.793 941.451 478.76Z" fill="#0F0F23"/>
<path d="M935.245 506.066H935.245C940.997 506.066 945.66 501.403 945.66 495.651V465.472C945.66 459.72 940.997 455.057 935.245 455.057H935.245C929.494 455.057 924.831 459.72 924.831 465.472V495.651C924.831 501.403 929.494 506.066 935.245 506.066Z" fill="#313658"/>
<path d="M935.245 491.031C936.542 491.031 937.594 489.98 937.594 488.683V476.681C937.594 475.384 936.542 474.333 935.245 474.333C933.948 474.333 932.897 475.384 932.897 476.681V488.683C932.897 489.98 933.948 491.031 935.245 491.031Z" fill="#427BFF"/>
<path d="M860.778 494.265C860.778 494.265 890.684 500.396 906.903 494.647C918.917 490.389 918.573 483.116 913.883 481.508C899.512 476.581 903.207 473.912 903.207 473.912C905.05 468.83 910.044 466.803 918.4 468.035L906.766 461.457C906.766 461.457 854.209 484.645 860.778 494.265Z" fill="#EEB489"/>
<path d="M679.213 414.786C677.695 414.87 650.352 454.396 650.352 454.396L655.283 476.372L735.115 493.311L781.856 454.396C781.856 454.396 758.722 444.209 746.918 433.35C735.115 422.491 715.285 414.785 715.285 414.785C697.127 414.298 697.569 417.464 679.213 414.786Z" fill="#0E0F25"/>
<path d="M734.767 456.942L812.141 490.885L886.024 481.544" stroke="#0E0F25" stroke-width="42.8853" stroke-miterlimit="10"/>
<path d="M669.382 415.95C699.816 408.881 693.491 408.386 708.198 412.32C719.827 415.432 719.538 415.065 734.643 428.157C749.749 441.248 744.547 549.166 747.428 605.933H642.708C642.708 605.933 640.331 564.511 640.178 540.823C639.826 486.347 613.841 448.927 669.382 415.95Z" fill="#0E0F25"/>
<path d="M692.375 433.338H705.066C707.435 433.338 709.356 431.417 709.356 429.048V399.687H688.085V429.048C688.085 431.417 690.005 433.338 692.375 433.338Z" fill="#EEB489"/>
<path d="M718.228 423.045C718.228 423.045 714.846 434.996 696.582 433.192C678.319 431.388 679.221 421.016 679.221 421.016" stroke="#427BFF" stroke-width="4.04294" stroke-miterlimit="10" stroke-linecap="round"/>
<path d="M709.356 404.477L689.95 404.676C689.95 404.676 706.31 417.534 709.356 415.449V404.477Z" fill="#0E0F25"/>
<path d="M733.149 320.954C716.634 309.308 672.842 310.153 667.867 326.314C665.73 333.253 654.039 344.657 657.396 362.115C660.754 379.572 670.17 389.331 677.935 388.939C684.495 388.608 688.916 340.366 694.378 341.346C702.51 342.806 703.211 343.983 709.154 345.175C716.14 346.576 730.822 349.52 739.625 341.346C745.195 336.173 736.141 323.064 733.149 320.954Z" fill="#0E0F25"/>
<path d="M700.169 406.698H711.414C724.313 406.698 734.769 396.241 734.769 383.343V353.322C734.769 340.424 724.313 329.968 711.414 329.968H696.189C683.291 329.968 672.835 340.424 672.835 353.322V379.363C672.835 394.459 685.073 406.698 700.169 406.698Z" fill="#EEB489"/>
<path d="M733.149 320.954C716.634 309.308 672.842 310.153 667.867 326.314C665.73 333.253 665.812 327.552 667.867 341.346C669.921 355.14 664.594 362.623 672.358 362.231C678.919 361.901 688.916 340.366 694.378 341.346C702.51 342.806 703.211 343.983 709.154 345.175C716.14 346.576 730.822 349.52 739.625 341.346C745.195 336.173 736.141 323.064 733.149 320.954Z" fill="#0E0F25"/>
<path d="M671.3 373.35C666.93 373.35 663.386 369.345 663.386 364.404C663.386 359.464 666.93 355.458 671.3 355.458C675.671 355.458 679.214 359.464 679.214 364.404C679.214 369.345 675.671 373.35 671.3 373.35Z" fill="#EEB489"/>
<path d="M714.546 364.161C717.377 371.283 718.317 376.382 718.675 379.386C718.838 380.754 718.981 382.538 717.901 383.515C716.041 385.198 711.98 383.202 711.578 382.999" stroke="#0E0F25" stroke-width="1.34765" stroke-miterlimit="10" stroke-linecap="round"/>
<path d="M704.651 393.41C704.403 393.316 707.169 387.777 711.024 387.823C712.683 387.842 713.856 388.409 714.878 389.327C716.705 390.969 715.94 393.982 713.55 394.547C711.576 395.014 708.696 394.948 704.651 393.41Z" fill="#0E0F25"/>
<path d="M660.822 470.833L675.424 548.375" stroke="#427BFF" stroke-width="47.1739" stroke-miterlimit="10" stroke-linecap="round"/>
<path d="M742.581 364.552L746.76 364.771C748.737 364.875 750.423 363.357 750.527 361.38L751.116 350.129C751.22 348.152 749.702 346.466 747.725 346.363L743.546 346.143L742.581 364.552Z" fill="#427BFF"/>
<path d="M716.142 344.763L718.215 344.635C720.444 344.498 722.139 342.58 722.002 340.351L720.353 313.618C720.215 311.39 718.297 309.695 716.069 309.832L713.995 309.96C711.766 310.097 710.071 312.016 710.209 314.244L711.857 340.977C711.995 343.205 713.913 344.9 716.142 344.763Z" fill="#427BFF"/>
<path d="M746.489 369.097L747.413 351.466C747.739 345.251 742.964 339.948 736.749 339.622C717.498 334.495 698.032 333.474 678.35 336.561C672.135 336.235 666.832 341.01 666.506 347.226L665.582 364.856C664.914 377.603 690.477 378.679 719.09 376.646C733.525 375.62 746.009 378.258 746.489 369.097Z" fill="#313658"/>
<path d="M706.496 343.366L724.645 344.317L724.522 346.656L706.374 345.704L706.496 343.366Z" fill="#427BFF"/>
<path d="M668.056 362.513C667.963 364.287 666.449 365.65 664.675 365.557L662.817 365.46C660.552 365.341 658.813 363.409 658.931 361.144L659.573 348.903C659.692 346.638 661.624 344.898 663.889 345.017L665.747 345.114C667.521 345.207 668.883 346.72 668.79 348.494L668.056 362.513Z" fill="#427BFF"/>
<path d="M714.694 389.168L707.209 389.583C707.209 389.583 708.731 387.823 711.023 387.823C713.316 387.823 714.694 389.168 714.694 389.168Z" fill="#E6E7E8"/>
<path d="M714.997 393.747C714.997 393.747 706.25 392.291 704.65 393.41C704.65 393.41 708.737 395.412 711.878 395.008C715.019 394.605 714.997 393.747 714.997 393.747Z" fill="#F26B6B"/>
<path d="M823.803 531.803L827.681 539.762C828.133 540.691 827.747 541.81 826.818 542.263L791.433 559.502C790.504 559.954 789.385 559.568 788.932 558.639L785.055 550.68C784.603 549.751 784.989 548.632 785.917 548.18L821.303 530.941C822.231 530.488 823.351 530.874 823.803 531.803Z" fill="#0F0F23"/>
<path d="M806.265 509.973C811.436 507.454 817.67 509.604 820.189 514.775L833.406 541.906C835.925 547.076 833.776 553.31 828.605 555.829L828.605 555.829C823.434 558.348 817.2 556.199 814.681 551.028L801.464 523.897C798.945 518.726 801.094 512.492 806.265 509.973Z" fill="#313658"/>
<path d="M812.85 523.489V523.489C814.016 522.921 815.421 523.406 815.989 524.572L821.245 535.361C821.813 536.527 821.329 537.933 820.163 538.501C818.997 539.069 817.591 538.584 817.023 537.418L811.767 526.629C811.199 525.463 811.684 524.057 812.85 523.489Z" fill="#427BFF"/>
<path d="M767.825 583.612C768.165 584.258 795.397 594.774 803.612 587.877C805.882 585.971 806.934 572.557 807.871 568.626C809.037 563.731 835.037 565.434 832.74 560.209C829.037 551.783 791.036 554.151 791.036 554.151C791.036 554.151 791.577 548.285 789.251 546.754C784.404 543.566 772.78 548.851 767.48 552.119C762.181 555.387 767.825 583.612 767.825 583.612Z" fill="#EEB489"/>
<path d="M669.886 546.362L773.709 566.241" stroke="#427BFF" stroke-width="47.1739" stroke-miterlimit="10"/>
<path opacity="0.2" d="M992.15 477.198C1019.7 483.675 1046.93 473.243 1059.49 452.562C1074.2 428.343 1066.4 394.013 1047.99 381.116C1022.18 363.028 987.184 395.28 901.817 421.356C841.335 439.83 799.399 452.64 751.711 444.733C662.424 429.93 652.227 358.961 579.904 358.123C522.815 357.461 467.179 400.96 442.762 451.74C424.651 489.405 420.973 536.78 435.371 574.922C488.768 716.372 806.608 772.773 908.387 658.685C946.47 615.996 965.537 536.844 935.487 510.867C906.356 485.685 840.63 518.744 832.015 523.185" stroke="#F1F2F2" stroke-width="47.1739" stroke-miterlimit="10"/>
<path d="M305.53 684.193C302.828 693.71 326.407 705.528 327.593 705.97L334.946 703.186C336.507 701.703 340.378 698.224 343.372 696.173C347.114 693.609 344.068 689.642 339.917 686.755C335.767 683.869 336.766 680.077 338.638 676.947C340.51 673.818 338.072 670.285 334.946 669.431C331.82 668.577 334.373 664.678 335.839 660.811C337.304 656.944 329.911 655.923 325.478 656.327C321.046 656.732 320.035 650.364 315.873 648.119C311.711 645.873 310.237 651.4 311.234 653.697C312.232 655.995 309.552 658.651 305.53 660.811C301.507 662.971 304.78 670.895 308.806 674.677C313.217 678.82 306.831 679.608 305.53 684.193Z" fill="#D1D95E"/>
<path d="M300.339 683.133C301.817 689.406 286.984 697.747 286.241 698.065L281.748 696.364C280.812 695.409 278.488 693.175 276.677 691.872C274.413 690.244 276.38 687.543 279.007 685.539C281.634 683.535 281.093 681.033 279.999 678.99C278.904 676.947 280.486 674.548 282.437 673.916C284.389 673.284 282.889 670.744 282.061 668.202C281.233 665.66 285.829 664.83 288.564 665.009C291.298 665.188 292.054 660.932 294.675 659.354C297.297 657.775 298.096 661.421 297.432 662.969C296.768 664.517 298.372 666.228 300.817 667.583C303.262 668.937 301.075 674.274 298.506 676.871C295.692 679.717 299.627 680.11 300.339 683.133Z" fill="#C6D303"/>
<path d="M361.448 675.312C362.926 681.585 348.093 689.926 347.35 690.244L342.857 688.543C341.921 687.588 339.596 685.354 337.786 684.051C335.522 682.423 337.489 679.722 340.116 677.718C342.743 675.714 342.202 673.212 341.108 671.169C340.013 669.126 341.594 666.727 343.546 666.095C345.498 665.463 343.998 662.923 343.17 660.381C342.342 657.839 346.938 657.009 349.673 657.188C352.407 657.367 353.163 653.111 355.784 651.533C358.406 649.954 359.205 653.6 358.541 655.148C357.877 656.696 359.481 658.407 361.926 659.762C364.371 661.116 362.184 666.453 359.615 669.05C356.801 671.896 360.736 672.289 361.448 675.312Z" fill="#B3C13C"/>
<rect x="334.065" y="653.535" width="2.7759" height="43.9997" rx="1.38795" transform="rotate(12.0096 334.065 653.535)" fill="#EFC474"/>
<path d="M335.352 685C336.829 691.274 321.997 699.615 321.254 699.933L316.761 698.232C315.825 697.277 313.5 695.043 311.689 693.74C309.426 692.111 311.392 689.411 314.02 687.407C316.647 685.402 316.106 682.901 315.012 680.858C313.917 678.815 315.498 676.416 317.45 675.784C319.402 675.152 317.901 672.612 317.074 670.07C316.246 667.528 320.842 666.698 323.576 666.877C326.311 667.055 327.067 662.8 329.688 661.221C332.31 659.643 333.109 663.288 332.445 664.837C331.78 666.385 333.385 668.096 335.83 669.451C338.275 670.805 336.087 676.141 333.519 678.739C330.704 681.585 334.64 681.978 335.352 685Z" fill="#B3C13C"/>
<ellipse cx="330.121" cy="728.189" rx="66.5522" ry="4.28793" fill="#4A3D24" fill-opacity="0.1"/>
<path d="M393.069 726.342C393.069 729.124 365.129 731.38 330.662 731.38C296.196 731.38 268.255 729.124 268.255 726.342C268.255 725.217 272.82 724.179 280.535 723.34C291.908 722.105 310.127 721.304 330.662 721.304C349.411 721.304 366.229 721.972 377.668 723.028C387.259 723.914 393.069 725.073 393.069 726.342Z" fill="#B9A57F"/>
<path d="M268.255 726.342C268.255 725.217 272.82 724.179 280.535 723.34L268.255 723.38V726.342Z" fill="#B9A57F"/>
<path d="M377.668 723.028C387.259 723.914 393.069 725.073 393.069 726.342V723.002H385.795L377.668 723.028Z" fill="#B9A57F"/>
<ellipse cx="330.662" cy="723.277" rx="62.4072" ry="5.03781" fill="#E3D6B8"/>
<circle cx="326.693" cy="684.269" r="5.91594" fill="#6E2AC4"/>
<circle cx="293.064" cy="680.307" r="5.51817" fill="#6E2AC4"/>
<circle cx="390.876" cy="688.037" r="5.51817" fill="#6E2AC4"/>
<path d="M288.075 668.917C289.873 670.59 291.271 674.921 289.407 676.924C287.543 678.927 283.122 677.844 281.324 676.171C279.527 674.498 278.109 670.148 279.973 668.145C281.837 666.142 286.277 667.244 288.075 668.917Z" fill="#3F3F3F"/>
<path d="M339.992 667.426C341.79 669.099 343.188 673.431 341.324 675.434C339.46 677.437 335.04 676.353 333.242 674.68C331.444 673.007 330.026 668.658 331.89 666.655C333.754 664.652 338.194 665.753 339.992 667.426Z" fill="#3F3F3F"/>
<path d="M384.459 723.775C384.459 725.185 359.487 725.645 328.683 725.645C297.879 725.645 277.423 725.131 277.423 723.721C279.55 719.467 297.879 721.221 328.683 721.221C359.487 721.221 384.459 722.365 384.459 723.775Z" fill="#4A3D24" fill-opacity="0.1"/>
<path d="M310.567 675.788C313.113 677.016 317.621 680.57 315.285 684.962C312.364 690.453 305.728 690.753 303.932 688.663C302.496 686.992 301.111 683.791 300.598 682.399C297.795 683.256 291.514 683.666 288.822 678.453C286.13 673.239 286.833 669.2 287.521 667.833C285.913 666.576 283.444 663.046 286.436 658.983C290.177 653.905 298.857 657.718 298.12 662.171" stroke="#FFD704" stroke-width="3.21103"/>
<circle cx="337.953" cy="677.204" r="9.96998" fill="#FF2030"/>
<circle cx="337.954" cy="677.892" r="7.66299" fill="#FF616C"/>
<path d="M341.76 700.532C354.885 690.044 370.61 661.806 376.831 648.998C364.671 683.287 350.569 695.6 343.717 701.456L341.76 700.532Z" fill="#138600"/>
<path d="M377.766 668.911C376.475 671 372.499 673.215 370.171 671.776C367.843 670.338 368.046 665.791 369.337 663.702C370.628 661.613 374.618 659.375 376.946 660.814C379.274 662.253 379.057 666.822 377.766 668.911Z" fill="#3F3F3F"/>
<circle cx="278.129" cy="681.456" r="8.38484" fill="#FF2030"/>
<circle cx="318.96" cy="689.564" r="8.38484" fill="#FF2030"/>
<path d="M308.035 714.075C294.91 703.588 279.185 675.35 272.964 662.542C285.124 696.83 299.226 709.144 306.078 715L308.035 714.075Z" fill="#138600"/>
<circle cx="374.731" cy="675.47" r="11.4639" fill="#FF2030"/>
<path d="M272.684 680.812C268.979 681.498 274.228 690.476 277.317 694.88H287.781C296.759 695.509 315.642 696.149 319.348 693.679C323.98 690.591 315.573 688.189 312.314 685.444C309.054 682.699 316.603 674.636 308.368 670.347C300.133 666.058 296.188 684.243 292.928 684.243C289.668 684.243 293.443 673.607 286.58 673.092C279.718 672.577 283.492 682.356 281.605 684.243C279.718 686.13 277.317 679.954 272.684 680.812Z" fill="#B3C13C"/>
<path d="M393.282 675.665C398.62 676.654 391.058 689.585 386.611 695.927H371.537C358.606 696.833 359.337 695.927 359.337 695.927L354.889 687.817C354.889 687.817 363.383 665.287 373.267 664.545C383.151 663.804 377.715 677.889 380.433 680.607C383.151 683.325 386.611 674.43 393.282 675.665Z" fill="#A7B200"/>
<path d="M353.736 672.271C351.025 673.072 346.003 675.852 347.6 680.564C349.597 686.454 356.098 687.82 358.207 686.048C359.895 684.629 361.778 681.694 362.508 680.403C365.137 681.701 371.269 683.119 374.766 678.408C378.264 673.697 378.222 669.598 377.764 668.137C379.554 667.156 382.56 664.07 380.262 659.578C377.389 653.963 368.208 656.326 368.217 660.84" stroke="#B61A26" stroke-width="3.21103"/>
<path d="M345.464 656.818C340.399 654.865 334.113 684.429 334.581 692.161L349.098 696.631C359.641 704.175 362.992 697.599 362.992 697.599L370.161 699.035C370.161 699.035 376.371 663.633 368.338 657.826C360.306 652.018 357.562 666.864 353.823 667.757C350.084 668.649 351.795 659.259 345.464 656.818Z" fill="#D1D95E"/>
<rect x="387.494" y="665.642" width="5.1721" height="43.9997" transform="rotate(24.179 387.494 665.642)" fill="#FFC940"/>
<path d="M344.623 683.965C346.421 685.638 347.819 689.969 345.955 691.973C344.091 693.976 339.671 692.892 337.873 691.219C336.075 689.546 334.657 685.197 336.521 683.193C338.385 681.19 342.825 682.292 344.623 683.965Z" fill="#3F3F3F"/>
<rect x="308.246" y="662.262" width="2.7759" height="43.9997" transform="rotate(-38.7524 308.246 662.262)" fill="#EDB21B"/>
<rect width="2.7759" height="43.9997" transform="matrix(-0.779858 -0.625957 -0.625957 0.779858 342.835 674.589)" fill="#EDB21B"/>
<rect x="261.092" y="671.292" width="2.7759" height="43.9997" rx="1.38795" transform="rotate(-26.7125 261.092 671.292)" fill="#EFC474"/>
<path d="M351.424 717.302C364.549 706.814 380.274 678.576 386.496 665.768C374.336 700.057 360.234 712.37 353.382 718.226L351.424 717.302Z" fill="#138600"/>
<path d="M296.368 711.13C309.493 700.643 325.218 672.405 331.44 659.597C319.28 693.885 305.178 706.199 298.326 712.055L296.368 711.13Z" fill="#138600"/>
<path d="M340.777 670.436C342.306 668.058 346.381 664.016 350.457 666.869C355.552 670.436 355.042 677.059 352.75 678.587C350.916 679.81 347.57 680.795 346.127 681.135C346.636 684.022 346.279 690.305 340.777 692.343C335.275 694.381 331.352 693.192 330.078 692.343C328.634 693.787 324.83 695.808 321.162 692.343C316.577 688.013 321.417 679.861 325.747 681.135" stroke="#FFD704" stroke-width="3.21103"/>
<circle cx="318.566" cy="663.773" r="0.745648" fill="#FCFCFC"/>
<circle cx="302.898" cy="685.388" r="0.745648" fill="#FCFCFC"/>
<circle cx="282.142" cy="676.744" r="1.20838" fill="#FCFCFC"/>
<circle cx="373.736" cy="663.515" r="1.00097" fill="#FCFCFC"/>
<circle cx="337.208" cy="686.076" r="0.745648" fill="#FCFCFC"/>
<circle cx="310.391" cy="687.918" r="0.745648" fill="#FCFCFC"/>
<circle cx="309.834" cy="658.6" r="0.745648" fill="#FCFCFC"/>
<circle cx="308.503" cy="674.562" r="0.745648" fill="#FCFCFC"/>
<circle cx="364.016" cy="683.26" r="0.745648" fill="#FCFCFC"/>
<circle cx="368.874" cy="670.485" r="0.745648" fill="#FCFCFC"/>
<circle cx="354.894" cy="658.955" r="0.745648" fill="#FCFCFC"/>
<circle cx="361.21" cy="677.054" r="0.745648" fill="#FCFCFC"/>
<circle cx="271.583" cy="686.166" r="0.745648" fill="#FCFCFC"/>
<circle cx="339.156" cy="673.071" r="0.745648" fill="#FCFCFC"/>
<circle cx="390.879" cy="683.071" r="0.934842" fill="#FCFCFC"/>
<circle cx="381.873" cy="683.26" r="0.745648" fill="#FCFCFC"/>
<circle cx="359.814" cy="670.439" r="0.745648" fill="#FCFCFC"/>
<circle cx="324.047" cy="657.855" r="0.526838" fill="#FCFCFC"/>
<circle cx="373.856" cy="684.988" r="0.880822" fill="#FCFCFC"/>
<circle cx="389.05" cy="685.092" r="0.984657" fill="#FCFCFC"/>
<circle cx="350.536" cy="685.627" r="0.984657" fill="#FCFCFC"/>
<circle cx="294.987" cy="669.503" r="1.07823" fill="#FCFCFC"/>
<circle cx="290.873" cy="686.301" r="0.880822" fill="#FCFCFC"/>
<circle cx="361.209" cy="691.149" r="9.96998" fill="#FF2030"/>
<circle cx="361.209" cy="691.84" r="7.66299" fill="#FF616C"/>
<path d="M379.711 685.855C377.913 687.528 376.515 691.859 378.379 693.862C380.243 695.865 384.663 694.782 386.461 693.109C388.259 691.436 389.677 687.086 387.813 685.083C385.949 683.08 381.509 684.182 379.711 685.855Z" fill="#3F3F3F"/>
<circle cx="289.49" cy="692.542" r="9.96998" fill="#B61A26"/>
<circle cx="289.486" cy="693.234" r="7.66299" fill="#9E1A25"/>
<path fill-rule="evenodd" clip-rule="evenodd" d="M262.091 688.816H304.171H357.145H399.226L388.264 715.234C386.025 720.629 380.759 724.146 374.918 724.146H357.145H304.171H286.399C280.558 724.146 275.291 720.629 273.053 715.234L262.091 688.816Z" fill="#B9A57F"/>
<path fill-rule="evenodd" clip-rule="evenodd" d="M392.386 705.308L389.596 712.031C386.552 719.366 379.392 724.147 371.451 724.147H357.148H304.174H289.87C281.929 724.147 274.769 719.366 271.726 712.031L269.109 705.725C276.101 711.516 286.622 718.679 296.315 719.13C298.098 719.213 299.906 719.299 301.735 719.387C321.945 720.354 344.63 721.44 363.46 719.13C374.775 717.741 385.732 710.54 392.386 705.308Z" fill="#4A3D24" fill-opacity="0.1"/>
<path d="M1044.81 692.403L1186.51 694.696V699.107H1045.75L1044.81 692.403Z" fill="#3C3C3C"/>
<path d="M1189.7 684.818H1196.71" stroke="#33A7E8" stroke-width="2.78328" stroke-miterlimit="10"/>
<path d="M1200.98 807.536L1155.13 824.142" stroke="#78D2EE" stroke-width="7.42208" stroke-miterlimit="10" stroke-linecap="round"/>
<path d="M1198.16 809.903C1198.46 810.139 1198.8 810.308 1199.14 810.412C1200.29 810.759 1201.59 810.389 1202.38 809.385C1203.4 808.078 1203.16 806.191 1201.86 805.171C1200.55 804.15 1198.66 804.382 1197.64 805.688C1196.62 806.995 1196.85 808.882 1198.16 809.903Z" fill="#3C3C3C"/>
<path d="M1204.46 803.556L1193.93 809.876L1195.11 811.841L1205.64 805.521L1204.46 803.556Z" fill="#3C3C3C"/>
<path d="M1194.09 807.523L1191.49 809.22L1195.41 815.212L1198 813.515L1194.09 807.523Z" fill="#3C3C3C"/>
<path d="M1204.99 799.962L1202.39 801.659L1206.3 807.65L1208.9 805.953L1204.99 799.962Z" fill="#3C3C3C"/>
<path fill-rule="evenodd" clip-rule="evenodd" d="M1202.39 801.659L1204.99 799.962L1208.9 805.953L1206.3 807.65L1205.12 805.835L1202.98 807.116C1203.09 807.895 1202.9 808.716 1202.38 809.385C1201.59 810.389 1200.29 810.759 1199.14 810.412C1198.83 810.317 1198.52 810.167 1198.24 809.962L1196.4 811.063L1198 813.515L1195.41 815.212L1191.49 809.22L1194.09 807.523L1195.15 809.144L1197.04 808.007C1196.92 807.213 1197.11 806.372 1197.64 805.688C1198.65 804.394 1200.51 804.154 1201.82 805.141L1203.86 803.916L1202.39 801.659Z" fill="black" fill-opacity="0.4"/>
<path d="M997.533 720.38C950.243 720.38 911.906 758.713 911.906 805.999C911.906 853.285 950.243 891.618 997.533 891.618C1044.82 891.618 1083.16 853.285 1083.16 805.999C1083.16 758.713 1044.82 720.38 997.533 720.38ZM997.533 874.494C959.701 874.494 929.032 843.828 929.032 805.999C929.032 768.17 959.701 737.504 997.533 737.504C1035.36 737.504 1066.03 768.17 1066.03 805.999C1066.03 843.828 1035.36 874.494 997.533 874.494Z" fill="#3C3C3C"/>
<path d="M997.532 796.373C992.216 796.373 987.906 800.682 987.906 805.998C987.906 811.313 992.216 815.623 997.532 815.623C1002.85 815.623 1007.16 811.313 1007.16 805.998C1007.16 800.682 1002.85 796.373 997.532 796.373ZM997.532 809.069C995.836 809.069 994.461 807.694 994.461 805.998C994.461 804.302 995.836 802.927 997.532 802.927C999.228 802.927 1000.6 804.302 1000.6 805.998C1000.6 807.694 999.228 809.069 997.532 809.069Z" fill="#3C3C3C"/>
<path d="M1263.68 720.38C1216.39 720.38 1178.05 758.713 1178.05 805.999C1178.05 853.285 1216.39 891.618 1263.68 891.618C1310.97 891.618 1349.31 853.285 1349.31 805.999C1349.31 758.713 1310.97 720.38 1263.68 720.38ZM1263.68 874.494C1225.85 874.494 1195.18 843.828 1195.18 805.999C1195.18 768.17 1225.85 737.504 1263.68 737.504C1301.51 737.504 1332.18 768.17 1332.18 805.999C1332.18 843.828 1301.51 874.494 1263.68 874.494Z" fill="#3C3C3C"/>
<path d="M1054.1 661.227C1054.1 661.227 1021.29 771.846 1018.94 776.372C1016.6 780.899 996.022 805 996.022 805L999.661 807.977C999.661 807.977 1022.38 781.285 1023.87 778.595C1025.36 775.904 1062.92 655.259 1062.92 655.259L1047.13 654.533L1042.07 661.762L1054.1 661.227Z" fill="#33A7E8"/>
<path d="M1185.09 673.932H1194.69L1154.26 824.338H1147.4L1185.09 673.932Z" fill="#33A7E8"/>
<path d="M1154.19 848.612L1264.97 813.333C1264.97 813.333 1272.31 810.783 1270.76 803.857C1269.93 800.167 1266.48 798.797 1262.39 798.992C1258.3 799.187 1148.35 805.997 1148.35 805.997C1148.35 805.997 1125.59 808.703 1128.5 830.958C1131.17 851.336 1154.19 848.612 1154.19 848.612Z" stroke="#78D2EE" stroke-width="0.92776" stroke-miterlimit="10"/>
<path d="M1263.68 797.176C1258.81 797.176 1254.86 801.126 1254.86 805.998C1254.86 810.869 1258.81 814.819 1263.68 814.819C1268.55 814.819 1272.5 810.869 1272.5 805.998C1272.5 801.126 1268.55 797.176 1263.68 797.176ZM1263.68 811.063C1260.88 811.063 1258.62 808.795 1258.62 805.998C1258.62 803.2 1260.88 800.932 1263.68 800.932C1266.48 800.932 1268.75 803.2 1268.75 805.998C1268.75 808.795 1266.48 811.063 1263.68 811.063Z" fill="#33A7E8"/>
<path d="M1044.81 702.478L1152.7 820.007L1263.68 805.999V809.113L1150.88 828.145L1040.36 707.256L1044.81 702.478Z" fill="#33A7E8"/>
<path d="M1185.91 698.585L1263.68 805.998V809.112L1184.09 702.477L1185.91 698.585Z" fill="#33A7E8"/>
<path d="M1263.68 811.095C1266.49 811.095 1268.78 808.814 1268.78 806C1268.78 803.186 1266.49 800.905 1263.68 800.905C1260.87 800.905 1258.58 803.186 1258.58 806C1258.58 808.814 1260.87 811.095 1263.68 811.095Z" fill="#78D2EE"/>
<path d="M1150.15 851.373C1136.89 851.373 1126.11 840.593 1126.11 827.341C1126.11 814.089 1136.89 803.308 1150.15 803.308C1163.4 803.308 1174.18 814.089 1174.18 827.341C1174.18 840.593 1163.4 851.373 1150.15 851.373ZM1150.15 813.427C1142.47 813.427 1136.23 819.669 1136.23 827.341C1136.23 835.013 1142.47 841.255 1150.15 841.255C1157.82 841.255 1164.06 835.013 1164.06 827.341C1164.06 819.669 1157.82 813.427 1150.15 813.427Z" fill="#3C3C3C"/>
<path d="M1150.15 808.303L1154.57 821.928H1168.9L1157.31 830.348L1161.74 843.972L1150.15 835.552L1138.56 843.972L1142.98 830.348L1131.39 821.928H1145.72L1150.15 808.303Z" fill="#3C3C3C"/>
<path d="M1150.18 846.081C1160.52 846.081 1168.9 837.701 1168.9 827.364C1168.9 817.027 1160.52 808.647 1150.18 808.647C1139.84 808.647 1131.46 817.027 1131.46 827.364C1131.46 837.701 1139.84 846.081 1150.18 846.081Z" stroke="#78D2EE" stroke-width="3.805" stroke-miterlimit="10"/>
<path d="M997.532 810.405C999.964 810.405 1001.94 808.433 1001.94 806.002C1001.94 803.57 999.964 801.599 997.532 801.599C995.1 801.599 993.129 803.57 993.129 806.002C993.129 808.433 995.1 810.405 997.532 810.405Z" fill="#78D2EE"/>
<path d="M1043.45 715.868L1038.49 714.563C1037.54 714.311 1036.96 713.322 1037.21 712.365C1037.46 711.408 1038.45 710.831 1039.41 711.083L1044.37 712.388C1045.32 712.64 1045.9 713.629 1045.65 714.586C1045.4 715.543 1044.41 716.12 1043.45 715.868Z" fill="#3C3C3C"/>
<path d="M1052.1 688.897L1046.1 687.315C1045.14 687.063 1044.56 686.074 1044.81 685.117V685.117C1045.07 684.16 1046.05 683.583 1047.01 683.835L1053.02 685.417C1053.98 685.669 1054.55 686.658 1054.3 687.615V687.615C1054.05 688.573 1053.06 689.149 1052.1 688.897Z" fill="#3C3C3C"/>
<path d="M1051.09 692.335L1045.09 690.753C1044.13 690.501 1043.55 689.512 1043.8 688.555V688.555C1044.06 687.598 1045.05 687.021 1046 687.273L1052.01 688.855C1052.97 689.107 1053.54 690.096 1053.29 691.053V691.053C1053.04 692.01 1052.05 692.587 1051.09 692.335Z" fill="#78D2EE"/>
<path d="M1213.12 673.932H1161.25C1158.3 673.932 1155.91 674.89 1155.91 671.943V671.943C1155.91 669.153 1158.06 666.834 1160.84 666.622L1212.83 659.323C1214.99 659.159 1216.83 660.864 1216.83 663.026V670.219C1216.83 672.27 1215.17 673.932 1213.12 673.932Z" fill="#3C3C3C"/>
<path fill-rule="evenodd" clip-rule="evenodd" d="M1153.43 826.188C1154.08 827.982 1153.15 829.963 1151.36 830.613L1105.51 847.219C1103.72 847.869 1101.74 846.941 1101.09 845.147C1100.44 843.354 1101.37 841.373 1103.16 840.723L1149 824.117C1150.8 823.467 1152.78 824.394 1153.43 826.188Z" fill="#33A7E8"/>
<path d="M1100.58 845.011C1100.58 845.538 1100.68 846.041 1100.86 846.504C1101.46 848.042 1102.96 849.132 1104.71 849.132C1106.98 849.132 1108.83 847.287 1108.83 845.011C1108.83 842.735 1106.98 840.89 1104.71 840.89C1102.43 840.89 1100.58 842.735 1100.58 845.011Z" fill="#3C3C3C"/>
<path d="M1112.77 846.466L1097.03 840.415L1095.9 843.35L1111.64 849.401L1112.77 846.466Z" fill="#3C3C3C"/>
<path d="M1099.72 838.599L1095.69 837.223L1092.51 846.519L1096.54 847.895L1099.72 838.599Z" fill="#3C3C3C"/>
<path d="M1117.1 843.998L1113.07 842.621L1109.9 851.917L1113.93 853.294L1117.1 843.998Z" fill="#3C3C3C"/>
<path d="M1029.47 676.111L1052.49 634.433H1056.9C1058.09 634.723 1058.56 637.09 1057.43 639.012L1036.45 680.189C1036.45 680.189 1029.43 679.743 1029.47 676.111Z" fill="#3C3C3C"/>
<path d="M1194.51 696.461C1193.13 696.108 1192.29 694.697 1192.64 693.311L1196.22 679.26C1196.57 677.874 1197.98 677.036 1199.37 677.389C1200.76 677.742 1195.9 696.814 1194.51 696.461Z" fill="#3C3C3C"/>
<defs>
<clipPath id="clip0">
<rect width="1200" height="800" fill="white" transform="translate(120 112)"/>
</clipPath>
</defs>
</svg>
